<svg 
    preserveAspectRatio="xMidYMid meet"
    width="100%" 
    height="100%" 
    viewBox="0 0 829 364.82907"
    xmlns="http://www.w3.org/2000/svg" 
    data-name="Layer 1"
>

 <g>
  <title>Layer 1</title>
  <path id="svg_1" fill="#e4e4e4" d="m246.62988,300.38901c-2.85009,22.33 -13.33008,42.76 -24.51025,62.44c-0.36963,0.67 -0.75,1.33 -1.13965,2l-116.20019,0c-2.3501,-0.61 -4.66993,-1.28 -6.98,-2a127.02725,127.02725 0 0 1 -36.68994,-18.05c-42.75,-30.8 -59.20019,-89 -51.77,-141.15c4.62012,-32.4 18.83985,-65.48 46.52979,-82.93c14.62012,-9.23 33.3999,-12.23 50.23,-8.8c0.44043,0.08 0.88037,0.18 1.33008,0.27c14.48,3.26 27.37988,11.36 34.72021,24.41c13.19971,23.45 5.33985,52.5 -1.1499,78.6c-6.47021,26.1 -9.98047,57.34 8.7998,76.59c-6.20019,-18.25 -0.08007,-40.02 14.73,-52.36c11.18994,-9.31 26.77,-12.8 40.98,-9.91c1.35986,0.29 2.70019,0.62 4.02,1.02a44.59846,44.59846 0 0 1 9.16992,3.84c22.14986,12.37003 31.12007,40.86002 27.93013,66.03z"/>
  <path id="svg_2" fill="#fff" d="m177.73,362.82902c3.21973,0.75 6.44971,1.41 9.69971,2l-17.56985,0c-2.30029,-0.62 -4.59033,-1.28 -6.85986,-2q-7.48534,-2.34 -14.74023,-5.37c-19.39991,-8.14 -37.27,-20.36 -50.79,-36.62a103.37091,103.37091 0 0 1 -16.02,-26.17a118.85639,118.85639 0 0 1 -8.19971,-33.49c-2.4502,-23.6 0.0498,-47.85 4.71973,-71.03a296.45051,296.45051 0 0 1 23.16015,-69.47q1.905,-3.97494 3.93994,-7.9a1.54158,1.54158 0 0 1 1.02979,-0.88a1.77741,1.77741 0 0 1 1.33008,0.27a2.1062,2.1062 0 0 1 0.83008,2.78a293.03874,293.03874 0 0 0 -24.58008,66.96c-5.31983,22.67 -8.33985,46.39 -7.31006,69.7c0.98,21.78 6.67041,43.2 19.58008,61.00994c11.79,16.26 28.06982,29.08 46.08008,37.81a169.131,169.131 0 0 0 35.70015,12.40006z"/>
  <path id="svg_3" fill="#fff" d="m216.29,364.82902l-5.18018,0c-0.58007,-0.66 -1.14013,-1.33 -1.68994,-2a110.41123,110.41123 0 0 1 -23.24023,-49.66a107.73445,107.73445 0 0 1 9.29,-67.05a110.2407,110.2407 0 0 1 10.04,-16.62c1.35986,0.29 2.70019,0.62 4.02,1.02a106.05621,106.05621 0 0 0 -19.77,45.34a105.09492,105.09492 0 0 0 24.74035,86.97c0.57959,0.66998 1.17969,1.34002 1.79,2z"/>
  <path id="svg_4" fill="#e4e4e4" d="m682.92938,347.82216c0.75219,5.8933 3.51805,11.28515 6.4687,16.47906c0.09755,0.17682 0.19794,0.351 0.30078,0.52783l30.66735,0c0.62024,-0.161 1.23248,-0.33782 1.84215,-0.52783a33.52491,33.52491 0 0 0 9.68315,-4.76373c11.2825,-8.12868 15.624,-23.48872 13.663,-37.25207c-1.21933,-8.55094 -4.97218,-17.28137 -12.28006,-21.88674a18.43729,18.43729 0 0 0 -13.25661,-2.32248c-0.11624,0.02112 -0.23235,0.0475 -0.351,0.07126a13.67963,13.67963 0 0 0 -9.1633,6.44224c-3.48365,6.18889 -1.40929,13.85571 0.30348,20.744c1.70761,6.88828 2.634,15.13308 -2.32243,20.21351a12.64393,12.64393 0 0 0 -14.70288,-16.4342c-0.35889,0.07655 -0.71263,0.16363 -1.061,0.26921a11.77068,11.77068 0 0 0 -2.42011,1.01345c-5.8457,3.26464 -8.21311,10.78367 -7.37122,17.42649z"/>
  <path id="svg_5" fill="#fff" d="m701.11332,364.30122c-0.84974,0.19794 -1.70219,0.37211 -2.55993,0.52783l4.637,0c0.60709,-0.16362 1.21147,-0.33782 1.81044,-0.52783q1.97553,-0.61758 3.89022,-1.41724a34.90012,34.90012 0 0 0 13.40442,-9.66469a27.28163,27.28163 0 0 0 4.228,-6.90674a31.36842,31.36842 0 0 0 2.164,-8.83864a62.85793,62.85793 0 0 0 -1.24562,-18.7461a78.23849,78.23849 0 0 0 -6.11239,-18.33442q-0.50277,-1.04906 -1.03982,-2.08494a0.40684,0.40684 0 0 0 -0.27178,-0.23225a0.46908,0.46908 0 0 0 -0.351,0.07126a0.55587,0.55587 0 0 0 -0.21908,0.73369a77.33813,77.33813 0 0 1 6.48714,17.672a68.02194,68.02194 0 0 1 1.92926,18.39511a29.3506,29.3506 0 0 1 -5.16755,16.10164a32.4858,32.4858 0 0 1 -12.16137,9.97875a44.6366,44.6366 0 0 1 -9.42194,3.27257z"/>
  <path id="svg_6" fill="#fff" d="m690.93662,364.82905l1.36714,0c0.15309,-0.17418 0.3009,-0.351 0.446,-0.52783a29.13962,29.13962 0 0 0 6.13352,-13.10618a28.43312,28.43312 0 0 0 -2.45181,-17.69573a29.095,29.095 0 0 0 -2.64975,-4.38633c-0.35889,0.07655 -0.71263,0.16363 -1.061,0.26921a27.99,27.99 0 0 1 5.21767,11.96606a27.73652,27.73652 0 0 1 -6.5294,22.953c-0.15291,0.17679 -0.31129,0.35362 -0.47237,0.5278z"/>
  <path id="svg_39" fill="#3f3d56" d="m829,363.82902a1.00308,1.00308 0 0 1 -1,1l-827,0a1,1 0 0 1 0,-2l827,0a1.00308,1.00308 0 0 1 1,1z"/>
 </g>
</svg>