<?xml version="1.0" standalone="no"?>
<!DOCTYPE svg PUBLIC "-//W3C//DTD SVG 20010904//EN"
 "http://www.w3.org/TR/2001/REC-SVG-20010904/DTD/svg10.dtd">
<svg version="1.0" xmlns="http://www.w3.org/2000/svg"
 width="1024.000000pt" height="1024.000000pt" viewBox="0 0 1024.000000 1024.000000"
 preserveAspectRatio="xMidYMid meet">
<metadata>
Created by potrace 1.14, written by Peter Selinger 2001-2017
</metadata>
<g transform="translate(0.000000,1024.000000) scale(0.100000,-0.100000)"
fill="#000000" stroke="none">
<path d="M4745 10229 c-973 -75 -1912 -426 -2691 -1006 -290 -217 -628 -534
-844 -793 -295 -354 -497 -666 -696 -1075 -272 -560 -428 -1115 -496 -1765
-17 -167 -17 -773 0 -940 113 -1077 505 -2017 1183 -2830 133 -160 459 -486
619 -619 813 -678 1753 -1070 2830 -1183 167 -17 773 -17 940 0 983 103 1855
441 2618 1017 629 473 1124 1068 1482 1780 368 730 550 1494 550 2305 0 809
-181 1571 -547 2300 -497 992 -1281 1776 -2273 2273 -618 310 -1251 485 -1945
536 -161 12 -568 12 -730 0z m575 -3204 c220 -52 405 -179 527 -363 87 -130
131 -258 148 -424 l7 -68 197 0 c220 0 264 -8 345 -61 63 -42 111 -109 136
-189 20 -64 20 -85 18 -1170 -3 -1064 -4 -1107 -22 -1150 -45 -105 -105 -165
-205 -207 l-56 -23 -1286 0 c-1077 0 -1293 2 -1333 14 -102 31 -187 109 -232
216 -18 43 -19 88 -22 1140 -2 710 1 1112 8 1142 24 114 93 203 195 254 60 29
60 29 277 32 l217 3 6 67 c17 165 62 296 149 426 140 210 354 339 631 380 53
8 228 -4 295 -19z"/>
<path d="M4982 6674 c-122 -33 -229 -108 -296 -207 -43 -67 -86 -190 -86 -251
l0 -46 520 0 520 0 0 38 c0 52 -25 142 -58 210 -35 74 -140 179 -214 214 -117
57 -269 74 -386 42z"/>
<path d="M3900 4770 l0 -1050 1220 0 1220 0 0 1050 0 1050 -1220 0 -1220 0 0
-1050z m702 808 c20 -174 123 -320 283 -399 105 -51 203 -67 313 -51 234 37
415 222 440 452 l7 65 175 0 175 0 -3 -65 c-18 -386 -310 -717 -701 -796 -167
-33 -377 -9 -539 63 -222 98 -416 324 -477 558 -19 74 -38 214 -31 231 5 12
37 14 178 12 l173 -3 7 -67z"/>
</g>
</svg>
