<?xml version="1.0" standalone="no"?>
<!DOCTYPE svg PUBLIC "-//W3C//DTD SVG 20010904//EN"
 "http://www.w3.org/TR/2001/REC-SVG-20010904/DTD/svg10.dtd">
<svg version="1.0" xmlns="http://www.w3.org/2000/svg"
 width="625.000000pt" height="625.000000pt" viewBox="0 0 625.000000 625.000000"
 preserveAspectRatio="xMidYMid meet">
<metadata>
Created by potrace 1.14, written by Peter Selinger 2001-2017
</metadata>
<g transform="translate(0.000000,625.000000) scale(0.100000,-0.100000)"
fill="#000000" stroke="none">
<path d="M2853 6190 c-606 -59 -1181 -291 -1653 -666 -109 -87 -387 -364 -474
-474 -229 -287 -417 -639 -530 -989 -102 -318 -140 -565 -141 -926 0 -283 9
-384 55 -615 54 -271 129 -490 260 -755 302 -613 782 -1093 1395 -1395 265
-131 484 -206 755 -260 229 -46 333 -55 610 -55 281 0 405 13 652 66 364 79
726 232 1038 441 201 134 291 207 471 387 258 257 432 498 584 806 160 325
240 580 296 945 20 124 23 185 23 425 0 300 -13 431 -69 675 -186 821 -698
1528 -1425 1964 -348 210 -723 342 -1145 406 -160 24 -545 35 -702 20z m734
-2235 c241 -135 450 -259 466 -276 l27 -29 0 -520 0 -520 -27 -29 c-16 -16
-221 -139 -458 -272 -385 -217 -435 -243 -475 -242 -40 0 -91 25 -475 242
-236 134 -442 256 -457 272 l-28 29 0 520 0 520 28 29 c15 16 209 132 432 256
504 283 470 265 502 265 17 0 192 -92 465 -245z"/>
<path d="M3022 3908 c-51 -28 -89 -55 -85 -59 13 -11 601 -349 609 -349 11 0
194 104 194 110 0 5 -584 335 -610 344 -8 3 -57 -18 -108 -46z"/>
<path d="M2602 3672 c-56 -31 -102 -59 -102 -62 0 -5 64 -41 477 -272 l142
-80 95 52 c53 28 96 55 96 59 0 5 -127 82 -282 171 -156 90 -292 169 -303 176
-18 12 -32 7 -123 -44z"/>
<path d="M2380 3068 l0 -355 273 -154 c149 -84 291 -164 315 -177 l42 -24 0
354 0 355 -292 163 c-161 90 -303 170 -315 178 l-23 14 0 -354z"/>
<path d="M3543 3242 l-313 -176 0 -354 0 -354 48 27 c26 14 167 94 315 178
l267 151 0 353 c0 194 -1 353 -2 352 -2 0 -144 -80 -315 -177z"/>
</g>
</svg>
