<?xml version="1.0" standalone="no"?>
<!DOCTYPE svg PUBLIC "-//W3C//DTD SVG 20010904//EN"
 "http://www.w3.org/TR/2001/REC-SVG-20010904/DTD/svg10.dtd">
<svg version="1.0" xmlns="http://www.w3.org/2000/svg"
 width="1024.000000pt" height="1024.000000pt" viewBox="0 0 1024.000000 1024.000000"
 preserveAspectRatio="xMidYMid meet">
<metadata>
Created by potrace 1.14, written by Peter Selinger 2001-2017
</metadata>
<g transform="translate(0.000000,1024.000000) scale(0.100000,-0.100000)"
fill="#000000" stroke="none">
<path d="M5019 6867 c-24 -13 -102 -56 -174 -96 -71 -41 -150 -85 -175 -99
-25 -14 -61 -34 -80 -45 -19 -11 -89 -50 -155 -87 -66 -37 -138 -78 -160 -90
-41 -23 -259 -146 -330 -185 -22 -13 -65 -37 -95 -54 -30 -17 -102 -57 -159
-88 -74 -41 -113 -69 -133 -97 l-28 -39 0 -857 0 -857 28 -39 c17 -23 54 -53
88 -72 32 -17 84 -46 114 -63 30 -17 80 -45 110 -62 81 -45 117 -65 203 -114
42 -24 99 -55 125 -70 26 -14 63 -35 82 -46 19 -11 89 -50 155 -87 66 -37 136
-76 155 -87 19 -11 56 -32 82 -46 44 -24 141 -79 243 -137 121 -69 148 -80
198 -80 54 0 48 -3 397 195 41 23 93 53 115 65 72 41 289 163 335 188 95 53
117 66 190 107 84 47 120 68 200 112 30 17 80 45 110 62 30 17 82 46 114 63
34 19 71 49 88 72 l28 39 0 857 0 857 -28 39 c-17 23 -54 53 -88 72 -32 17
-84 46 -114 63 -30 17 -80 45 -110 62 -80 44 -116 65 -200 112 -73 41 -95 54
-190 107 -46 25 -263 147 -335 188 -22 12 -74 42 -115 65 -41 23 -91 51 -110
62 -19 11 -57 32 -85 48 -172 97 -213 105 -296 62z m161 -417 c28 -16 52 -30
54 -30 2 0 41 -22 87 -48 46 -27 104 -60 129 -74 25 -14 99 -55 165 -93 153
-86 189 -106 248 -139 26 -14 58 -32 70 -40 40 -26 152 -87 170 -93 31 -10 26
-15 -63 -65 -25 -14 -87 -48 -138 -77 l-93 -53 -60 36 c-33 20 -62 36 -65 36
-2 0 -23 12 -47 27 -23 15 -71 43 -107 63 -68 39 -78 44 -230 132 -52 30 -115
66 -140 80 -222 127 -341 197 -343 202 -2 5 126 86 136 86 3 0 36 18 73 40 38
22 76 40 86 40 9 0 40 -13 68 -30z m-588 -443 c90 -52 182 -106 205 -120 24
-15 45 -27 48 -27 2 0 34 -18 70 -40 36 -22 67 -40 70 -40 3 0 28 -15 57 -32
29 -18 124 -74 212 -124 87 -50 158 -95 158 -100 0 -5 -12 -16 -28 -25 -65
-36 -122 -68 -179 -99 -33 -18 -68 -38 -78 -44 -12 -8 -22 -8 -35 0 -9 6 -37
22 -62 36 -25 14 -101 57 -170 95 -69 39 -141 79 -160 90 -19 11 -56 32 -82
46 -26 15 -85 48 -130 73 -141 80 -180 102 -285 160 -57 32 -103 60 -103 63 0
4 12 12 28 18 27 12 67 34 157 88 77 46 129 74 137 75 4 0 81 -42 170 -93z
m-647 -438 c6 -4 87 -49 180 -101 94 -52 188 -105 210 -118 22 -12 94 -53 160
-90 66 -37 136 -76 155 -87 19 -11 60 -34 90 -50 30 -17 82 -46 115 -65 l60
-34 3 -572 2 -573 -47 27 c-27 15 -73 40 -103 56 -30 17 -59 34 -65 38 -5 4
-30 18 -55 32 -25 14 -101 57 -170 95 -69 39 -141 79 -160 90 -19 11 -56 32
-82 46 -26 15 -84 47 -128 72 -44 25 -102 57 -128 72 -26 14 -55 31 -64 37
-17 10 -18 49 -18 578 0 536 1 567 18 561 9 -3 22 -9 27 -14z m2375 -548 l0
-569 -92 -52 c-51 -29 -115 -65 -143 -80 -27 -15 -68 -37 -90 -50 -75 -42
-190 -107 -230 -131 -22 -12 -89 -50 -150 -84 -60 -34 -126 -71 -145 -82 -19
-11 -65 -36 -103 -57 l-67 -38 2 573 3 573 145 81 c162 91 206 115 317 178 89
51 124 70 208 117 88 49 121 67 210 118 84 48 128 72 133 72 1 0 2 -256 2
-569z"/>
</g>
</svg>
